<?xml version="1.0" encoding="utf-8"?>
<!-- Generator: Adobe Illustrator 26.4.1, SVG Export Plug-In . SVG Version: 6.00 Build 0)  -->
<svg version="1.1" id="Слой_1" xmlns="http://www.w3.org/2000/svg" xmlns:xlink="http://www.w3.org/1999/xlink" x="0px" y="0px"
	 viewBox="0 0 50 50" style="enable-background:new 0 0 50 50;" xml:space="preserve">
<style type="text/css">
	.st0{display:none;}
	.st1{display:inline;fill:url(#SVGID_1_);}
	.st2{fill:#0788B0;}
	.st3{fill:none;stroke:#000000;stroke-miterlimit:10;}
</style>
<g class="st0">
	
		<linearGradient id="SVGID_1_" gradientUnits="userSpaceOnUse" x1="0.6758" y1="25" x2="41.3144" y2="25" gradientTransform="matrix(1 0 0 -1 0 50)">
		<stop  offset="0.2803" style="stop-color:#89B3F1"/>
		<stop  offset="0.4097" style="stop-color:#A0A8E3;stop-opacity:0.8202"/>
		<stop  offset="0.8117" style="stop-color:#E488BC;stop-opacity:0.2616"/>
		<stop  offset="1" style="stop-color:#FF7BAC;stop-opacity:0"/>
	</linearGradient>
	<circle class="st1" cx="25" cy="25" r="14.5"/>
</g>
<image style="overflow:visible;enable-background:new    ;" width="1195" height="413" xlink:href="8614511F.jpg"  transform="matrix(1 0 0 1 -618.0879 51.2747)">
</image>
<rect x="142.4" y="-28" class="st2" width="50" height="50"/>
<path class="st2" d="M90.7,0h25c0,13.7-11.3,25-25,25s-25-11.3-25-25s11.3-25,25-25c2.5,0,5,0.4,7.5,1.1L90.7,0z"/>
<g>
	<path d="M25,15.2l0,1c9.9,0,15.6,7.2,17,9.3c-1.7,2-7.7,8.2-17.2,8.2l-0.1,0c-9.3,0-15.1-5.9-17-8.1c1.5-2.1,7.3-9.4,17.1-9.4V15.2
		 M25,15.2c-11.9,0-18.1,10-18.4,10.5c0.7,1,7.1,9,18.2,9.1c0,0,0.1,0,0.1,0c11.2,0,17.7-8.3,18.4-9.2C43,25.1,36.9,15.3,25,15.2
		C25.1,15.2,25,15.2,25,15.2L25,15.2z"/>
</g>
<path class="st3" d="M42.7-5.8"/>
<g>
	<path d="M39,1v48H11V1H39 M40,0H10v50h30V0L40,0z"/>
</g>
</svg>
