<?xml version="1.0" encoding="utf-8"?>
<!-- Generator: Adobe Illustrator 26.4.1, SVG Export Plug-In . SVG Version: 6.00 Build 0)  -->
<svg version="1.1" id="Слой_1" xmlns="http://www.w3.org/2000/svg" xmlns:xlink="http://www.w3.org/1999/xlink" x="0px" y="0px"
	 viewBox="0 0 70 70" style="enable-background:new 0 0 70 70;" xml:space="preserve">
<style type="text/css">
	.st0{fill:none;stroke:#3C3C3B;stroke-miterlimit:10;}
	.st1{fill:#3AAA35;}
	.st2{fill:none;stroke:#E30613;stroke-miterlimit:10;}
</style>
<path d="M52.93,23.72c-8.72-3.49-16.06-3.59-17.93-3.59c-1.74,0-7.19,0.11-13.88,2.15C11.01,25.36,4,31.06,0,34.99
	c2.31,2.61,5.59,5.73,10.06,8.45c10.09,6.14,20.13,6.55,24.94,6.42c5.35,0.09,16.49-0.53,27.03-7.77c3.34-2.29,5.95-4.79,7.97-7.09
	C66.72,31.72,61.1,26.98,52.93,23.72z M35,40.48c-3.03,0-5.48-2.45-5.48-5.48c0-3.03,2.45-5.48,5.48-5.48
	c3.03,0,5.48,2.45,5.48,5.48C40.48,38.03,38.03,40.48,35,40.48z"/>
<path class="st0" d="M38.81,34.86"/>
<ellipse class="st1" cx="34.82" cy="44.39" rx="5.66" ry="5.48"/>
<path class="st2" d="M35,70c-0.7-1.56-10.46-24.04,0.04-35.36c3.12-3.36,10.01-7.84,13.94-5.19c3.91,2.64,4.41,10.71,1.98,12.2
	c-1.63,1-3.4-1.73-7.4-1.51c-4.03,0.22-4.93,3.14-8.74,4.26c-6.18,1.81-14.2-2.83-13.96-5.42c0.29-3.08,12.45-4.19,14.18-4.34"/>
</svg>
